<mxfile host="app.diagrams.net" agent="Mozilla/5.0 (Windows NT 10.0; Win64; x64) AppleWebKit/537.36 (KHTML, like Gecko) Chrome/137.0.0.0 Safari/537.36" version="27.1.1">
  <diagram name="Page-1" id="eLbwY9m-PJqcMORaA7C6">
    <mxGraphModel dx="1277" dy="644" grid="0" gridSize="10" guides="1" tooltips="1" connect="1" arrows="1" fold="1" page="0" pageScale="1" pageWidth="827" pageHeight="1169" math="0" shadow="0">
      <root>
        <mxCell id="0" />
        <mxCell id="1" parent="0" />
        <mxCell id="cClUuNWOQDHqL2MIXVZV-33" value="" style="rounded=1;whiteSpace=wrap;html=1;" parent="1" vertex="1">
          <mxGeometry x="180" y="410" width="120" height="60" as="geometry" />
        </mxCell>
        <mxCell id="cClUuNWOQDHqL2MIXVZV-23" value="PASAPORTE" style="rounded=1;whiteSpace=wrap;html=1;" parent="1" vertex="1">
          <mxGeometry x="690" y="110" width="120" height="60" as="geometry" />
        </mxCell>
        <mxCell id="CcwklDiPerfuysnxBg1o-24" style="edgeStyle=orthogonalEdgeStyle;rounded=0;orthogonalLoop=1;jettySize=auto;html=1;exitX=0.25;exitY=1;exitDx=0;exitDy=0;entryX=0.5;entryY=0;entryDx=0;entryDy=0;endArrow=none;startFill=0;" edge="1" parent="1" source="cClUuNWOQDHqL2MIXVZV-1" target="CcwklDiPerfuysnxBg1o-22">
          <mxGeometry relative="1" as="geometry">
            <Array as="points">
              <mxPoint x="725" y="380" />
              <mxPoint x="765" y="380" />
            </Array>
          </mxGeometry>
        </mxCell>
        <mxCell id="CcwklDiPerfuysnxBg1o-25" style="edgeStyle=orthogonalEdgeStyle;rounded=0;orthogonalLoop=1;jettySize=auto;html=1;exitX=0.25;exitY=1;exitDx=0;exitDy=0;entryX=0.5;entryY=0;entryDx=0;entryDy=0;endArrow=oval;endFill=0;" edge="1" parent="1" source="cClUuNWOQDHqL2MIXVZV-1" target="CcwklDiPerfuysnxBg1o-23">
          <mxGeometry relative="1" as="geometry" />
        </mxCell>
        <mxCell id="cClUuNWOQDHqL2MIXVZV-1" value="USUARIOS" style="rounded=1;whiteSpace=wrap;html=1;" parent="1" vertex="1">
          <mxGeometry x="700" y="270" width="100" height="40" as="geometry" />
        </mxCell>
        <mxCell id="cClUuNWOQDHqL2MIXVZV-6" style="edgeStyle=orthogonalEdgeStyle;rounded=0;orthogonalLoop=1;jettySize=auto;html=1;exitX=0.5;exitY=1;exitDx=0;exitDy=0;entryX=0.5;entryY=0;entryDx=0;entryDy=0;endArrow=none;startFill=0;" parent="1" source="cClUuNWOQDHqL2MIXVZV-23" target="cClUuNWOQDHqL2MIXVZV-1" edge="1">
          <mxGeometry relative="1" as="geometry" />
        </mxCell>
        <mxCell id="cClUuNWOQDHqL2MIXVZV-5" style="edgeStyle=orthogonalEdgeStyle;rounded=0;orthogonalLoop=1;jettySize=auto;html=1;exitX=1;exitY=0.5;exitDx=0;exitDy=0;endArrow=none;startFill=0;" parent="1" source="cClUuNWOQDHqL2MIXVZV-8" target="cClUuNWOQDHqL2MIXVZV-1" edge="1">
          <mxGeometry relative="1" as="geometry" />
        </mxCell>
        <mxCell id="cClUuNWOQDHqL2MIXVZV-7" style="edgeStyle=orthogonalEdgeStyle;rounded=0;orthogonalLoop=1;jettySize=auto;html=1;exitX=0.5;exitY=1;exitDx=0;exitDy=0;endArrow=none;startFill=0;" parent="1" source="cClUuNWOQDHqL2MIXVZV-3" edge="1">
          <mxGeometry relative="1" as="geometry">
            <mxPoint x="240" y="410" as="targetPoint" />
          </mxGeometry>
        </mxCell>
        <mxCell id="CcwklDiPerfuysnxBg1o-2" style="edgeStyle=orthogonalEdgeStyle;rounded=0;orthogonalLoop=1;jettySize=auto;html=1;exitX=1;exitY=0.5;exitDx=0;exitDy=0;entryX=0;entryY=0.5;entryDx=0;entryDy=0;endArrow=none;startFill=0;" edge="1" parent="1" source="cClUuNWOQDHqL2MIXVZV-3" target="CcwklDiPerfuysnxBg1o-1">
          <mxGeometry relative="1" as="geometry" />
        </mxCell>
        <mxCell id="CcwklDiPerfuysnxBg1o-5" style="edgeStyle=orthogonalEdgeStyle;rounded=0;orthogonalLoop=1;jettySize=auto;html=1;exitX=0.797;exitY=-0.026;exitDx=0;exitDy=0;entryX=0.5;entryY=0;entryDx=0;entryDy=0;exitPerimeter=0;endArrow=none;startFill=0;" edge="1" parent="1" source="cClUuNWOQDHqL2MIXVZV-3" target="CcwklDiPerfuysnxBg1o-4">
          <mxGeometry relative="1" as="geometry" />
        </mxCell>
        <mxCell id="cClUuNWOQDHqL2MIXVZV-3" value="DESTINOS" style="rounded=1;whiteSpace=wrap;html=1;" parent="1" vertex="1">
          <mxGeometry x="190" y="270" width="100" height="40" as="geometry" />
        </mxCell>
        <mxCell id="cClUuNWOQDHqL2MIXVZV-4" value="GUIAS" style="rounded=1;whiteSpace=wrap;html=1;" parent="1" vertex="1">
          <mxGeometry x="190" y="420" width="100" height="40" as="geometry" />
        </mxCell>
        <mxCell id="cClUuNWOQDHqL2MIXVZV-10" value="" style="edgeStyle=orthogonalEdgeStyle;rounded=0;orthogonalLoop=1;jettySize=auto;html=1;exitX=1;exitY=0.5;exitDx=0;exitDy=0;endArrow=none;startFill=0;" parent="1" source="CcwklDiPerfuysnxBg1o-1" target="cClUuNWOQDHqL2MIXVZV-8" edge="1">
          <mxGeometry relative="1" as="geometry">
            <mxPoint x="570" y="290" as="sourcePoint" />
            <mxPoint x="694" y="290" as="targetPoint" />
          </mxGeometry>
        </mxCell>
        <mxCell id="cClUuNWOQDHqL2MIXVZV-8" value="" style="triangle;whiteSpace=wrap;html=1;fillColor=light-dark(#FFFFFF,#FFFFFF);" parent="1" vertex="1">
          <mxGeometry x="640" y="275" width="30" height="30" as="geometry" />
        </mxCell>
        <mxCell id="cClUuNWOQDHqL2MIXVZV-11" value="" style="triangle;whiteSpace=wrap;html=1;rotation=-180;" parent="1" vertex="1">
          <mxGeometry x="610" y="275" width="30" height="30" as="geometry" />
        </mxCell>
        <mxCell id="cClUuNWOQDHqL2MIXVZV-15" value="" style="triangle;whiteSpace=wrap;html=1;direction=south;fillColor=light-dark(#FFFFFF,#FFFFFF);" parent="1" vertex="1">
          <mxGeometry x="735" y="220" width="30" height="30" as="geometry" />
        </mxCell>
        <mxCell id="cClUuNWOQDHqL2MIXVZV-16" value="" style="triangle;whiteSpace=wrap;html=1;rotation=-180;direction=south;fillColor=light-dark(#FFFFFF,#FFFFFF);" parent="1" vertex="1">
          <mxGeometry x="735" y="190" width="30" height="30" as="geometry" />
        </mxCell>
        <mxCell id="cClUuNWOQDHqL2MIXVZV-17" value="" style="triangle;whiteSpace=wrap;html=1;direction=south;" parent="1" vertex="1">
          <mxGeometry x="225" y="360" width="30" height="30" as="geometry" />
        </mxCell>
        <mxCell id="cClUuNWOQDHqL2MIXVZV-18" value="" style="triangle;whiteSpace=wrap;html=1;rotation=-180;direction=south;fillColor=light-dark(#FFFFFF,#FFFFFF);" parent="1" vertex="1">
          <mxGeometry x="225" y="330" width="30" height="30" as="geometry" />
        </mxCell>
        <mxCell id="cClUuNWOQDHqL2MIXVZV-20" value="Reservar" style="text;html=1;align=center;verticalAlign=middle;whiteSpace=wrap;rounded=0;" parent="1" vertex="1">
          <mxGeometry x="610" y="310" width="60" height="30" as="geometry" />
        </mxCell>
        <mxCell id="cClUuNWOQDHqL2MIXVZV-21" value="(0, N)" style="text;html=1;align=center;verticalAlign=middle;whiteSpace=wrap;rounded=0;" parent="1" vertex="1">
          <mxGeometry x="570" y="250" width="60" height="30" as="geometry" />
        </mxCell>
        <mxCell id="cClUuNWOQDHqL2MIXVZV-22" value="(0, N)" style="text;html=1;align=center;verticalAlign=middle;whiteSpace=wrap;rounded=0;" parent="1" vertex="1">
          <mxGeometry x="650" y="250" width="60" height="30" as="geometry" />
        </mxCell>
        <mxCell id="cClUuNWOQDHqL2MIXVZV-25" value="Pertencer" style="text;html=1;align=center;verticalAlign=middle;whiteSpace=wrap;rounded=0;" parent="1" vertex="1">
          <mxGeometry x="780" y="200" width="60" height="30" as="geometry" />
        </mxCell>
        <mxCell id="cClUuNWOQDHqL2MIXVZV-26" value="(0, 1)" style="text;html=1;align=center;verticalAlign=middle;whiteSpace=wrap;rounded=0;" parent="1" vertex="1">
          <mxGeometry x="680" y="180" width="60" height="30" as="geometry" />
        </mxCell>
        <mxCell id="cClUuNWOQDHqL2MIXVZV-27" value="(1, 1)" style="text;html=1;align=center;verticalAlign=middle;whiteSpace=wrap;rounded=0;" parent="1" vertex="1">
          <mxGeometry x="680" y="220" width="60" height="30" as="geometry" />
        </mxCell>
        <mxCell id="cClUuNWOQDHqL2MIXVZV-28" value="Trabajar" style="text;html=1;align=center;verticalAlign=middle;whiteSpace=wrap;rounded=0;" parent="1" vertex="1">
          <mxGeometry x="255" y="340" width="60" height="30" as="geometry" />
        </mxCell>
        <mxCell id="cClUuNWOQDHqL2MIXVZV-30" value="(0, N)" style="text;html=1;align=center;verticalAlign=middle;whiteSpace=wrap;rounded=0;" parent="1" vertex="1">
          <mxGeometry x="170" y="370" width="60" height="30" as="geometry" />
        </mxCell>
        <mxCell id="cClUuNWOQDHqL2MIXVZV-31" value="(1, 1)" style="text;html=1;align=center;verticalAlign=middle;whiteSpace=wrap;rounded=0;" parent="1" vertex="1">
          <mxGeometry x="170" y="320" width="60" height="30" as="geometry" />
        </mxCell>
        <mxCell id="cClUuNWOQDHqL2MIXVZV-32" value="E" style="text;html=1;align=center;verticalAlign=middle;whiteSpace=wrap;rounded=0;" parent="1" vertex="1">
          <mxGeometry x="240" y="380" width="60" height="30" as="geometry" />
        </mxCell>
        <mxCell id="cClUuNWOQDHqL2MIXVZV-61" style="edgeStyle=orthogonalEdgeStyle;rounded=0;orthogonalLoop=1;jettySize=auto;html=1;exitX=0.5;exitY=1;exitDx=0;exitDy=0;endArrow=oval;startFill=0;endFill=0;entryX=0.5;entryY=0;entryDx=0;entryDy=0;" parent="1" edge="1" target="cClUuNWOQDHqL2MIXVZV-34" source="cClUuNWOQDHqL2MIXVZV-1">
          <mxGeometry relative="1" as="geometry">
            <mxPoint x="740" y="310" as="sourcePoint" />
            <mxPoint x="715" y="345" as="targetPoint" />
            <Array as="points">
              <mxPoint x="750" y="360" />
              <mxPoint x="865" y="360" />
            </Array>
          </mxGeometry>
        </mxCell>
        <mxCell id="cClUuNWOQDHqL2MIXVZV-34" value="Nombre" style="ellipse;whiteSpace=wrap;html=1;" parent="1" vertex="1">
          <mxGeometry x="820" y="400" width="90" height="55" as="geometry" />
        </mxCell>
        <mxCell id="cClUuNWOQDHqL2MIXVZV-63" style="edgeStyle=orthogonalEdgeStyle;rounded=0;orthogonalLoop=1;jettySize=auto;html=1;exitX=0.733;exitY=1.006;exitDx=0;exitDy=0;entryX=0;entryY=0.5;entryDx=0;entryDy=0;endArrow=oval;startFill=0;endFill=0;exitPerimeter=0;" parent="1" source="cClUuNWOQDHqL2MIXVZV-1" target="cClUuNWOQDHqL2MIXVZV-35" edge="1">
          <mxGeometry relative="1" as="geometry">
            <Array as="points">
              <mxPoint x="773" y="330" />
              <mxPoint x="873" y="330" />
              <mxPoint x="873" y="390" />
              <mxPoint x="900" y="390" />
            </Array>
            <mxPoint x="805" y="347.5" as="targetPoint" />
          </mxGeometry>
        </mxCell>
        <mxCell id="cClUuNWOQDHqL2MIXVZV-35" value="Apellido" style="ellipse;whiteSpace=wrap;html=1;" parent="1" vertex="1">
          <mxGeometry x="900" y="362.5" width="90" height="55" as="geometry" />
        </mxCell>
        <mxCell id="cClUuNWOQDHqL2MIXVZV-60" style="rounded=0;orthogonalLoop=1;jettySize=auto;html=1;exitX=0;exitY=0;exitDx=0;exitDy=0;entryX=0.982;entryY=0.961;entryDx=0;entryDy=0;entryPerimeter=0;endArrow=none;startFill=0;" parent="1" source="cClUuNWOQDHqL2MIXVZV-36" target="cClUuNWOQDHqL2MIXVZV-1" edge="1">
          <mxGeometry relative="1" as="geometry" />
        </mxCell>
        <mxCell id="cClUuNWOQDHqL2MIXVZV-36" value="Apellido2" style="ellipse;whiteSpace=wrap;html=1;" parent="1" vertex="1">
          <mxGeometry x="900" y="300" width="90" height="55" as="geometry" />
        </mxCell>
        <mxCell id="cClUuNWOQDHqL2MIXVZV-58" style="edgeStyle=orthogonalEdgeStyle;rounded=0;orthogonalLoop=1;jettySize=auto;html=1;exitX=0;exitY=0.75;exitDx=0;exitDy=0;entryX=0.5;entryY=0;entryDx=0;entryDy=0;endArrow=oval;startFill=0;endFill=0;" parent="1" source="cClUuNWOQDHqL2MIXVZV-33" target="cClUuNWOQDHqL2MIXVZV-37" edge="1">
          <mxGeometry relative="1" as="geometry" />
        </mxCell>
        <mxCell id="cClUuNWOQDHqL2MIXVZV-37" value="Nombre" style="ellipse;whiteSpace=wrap;html=1;" parent="1" vertex="1">
          <mxGeometry x="110" y="500" width="90" height="55" as="geometry" />
        </mxCell>
        <mxCell id="cClUuNWOQDHqL2MIXVZV-57" style="edgeStyle=orthogonalEdgeStyle;rounded=0;orthogonalLoop=1;jettySize=auto;html=1;exitX=0.5;exitY=1;exitDx=0;exitDy=0;entryX=0.5;entryY=0;entryDx=0;entryDy=0;endArrow=oval;startFill=0;endFill=0;" parent="1" source="cClUuNWOQDHqL2MIXVZV-33" target="cClUuNWOQDHqL2MIXVZV-38" edge="1">
          <mxGeometry relative="1" as="geometry" />
        </mxCell>
        <mxCell id="cClUuNWOQDHqL2MIXVZV-38" value="Apellido" style="ellipse;whiteSpace=wrap;html=1;" parent="1" vertex="1">
          <mxGeometry x="195" y="520" width="90" height="55" as="geometry" />
        </mxCell>
        <mxCell id="cClUuNWOQDHqL2MIXVZV-56" style="edgeStyle=orthogonalEdgeStyle;rounded=0;orthogonalLoop=1;jettySize=auto;html=1;exitX=0.5;exitY=0;exitDx=0;exitDy=0;entryX=1;entryY=0.75;entryDx=0;entryDy=0;endArrow=none;startFill=0;" parent="1" source="cClUuNWOQDHqL2MIXVZV-39" target="cClUuNWOQDHqL2MIXVZV-33" edge="1">
          <mxGeometry relative="1" as="geometry" />
        </mxCell>
        <mxCell id="cClUuNWOQDHqL2MIXVZV-39" value="Apellido2" style="ellipse;whiteSpace=wrap;html=1;" parent="1" vertex="1">
          <mxGeometry x="280" y="500" width="90" height="55" as="geometry" />
        </mxCell>
        <mxCell id="cClUuNWOQDHqL2MIXVZV-65" style="edgeStyle=orthogonalEdgeStyle;rounded=0;orthogonalLoop=1;jettySize=auto;html=1;exitX=0;exitY=0.5;exitDx=0;exitDy=0;entryX=1;entryY=0.25;entryDx=0;entryDy=0;endArrow=none;startFill=0;" parent="1" source="cClUuNWOQDHqL2MIXVZV-43" target="cClUuNWOQDHqL2MIXVZV-1" edge="1">
          <mxGeometry relative="1" as="geometry">
            <Array as="points">
              <mxPoint x="840" y="218" />
              <mxPoint x="840" y="280" />
            </Array>
          </mxGeometry>
        </mxCell>
        <mxCell id="cClUuNWOQDHqL2MIXVZV-43" value="Edad" style="ellipse;whiteSpace=wrap;html=1;" parent="1" vertex="1">
          <mxGeometry x="910" y="190" width="90" height="55" as="geometry" />
        </mxCell>
        <mxCell id="cClUuNWOQDHqL2MIXVZV-64" style="edgeStyle=orthogonalEdgeStyle;rounded=0;orthogonalLoop=1;jettySize=auto;html=1;exitX=0;exitY=0.5;exitDx=0;exitDy=0;entryX=1;entryY=0.75;entryDx=0;entryDy=0;endArrow=none;startFill=0;" parent="1" source="cClUuNWOQDHqL2MIXVZV-44" target="cClUuNWOQDHqL2MIXVZV-1" edge="1">
          <mxGeometry relative="1" as="geometry" />
        </mxCell>
        <mxCell id="cClUuNWOQDHqL2MIXVZV-44" value="&lt;u&gt;Email&lt;/u&gt;" style="ellipse;whiteSpace=wrap;html=1;" parent="1" vertex="1">
          <mxGeometry x="910" y="245" width="90" height="55" as="geometry" />
        </mxCell>
        <mxCell id="cClUuNWOQDHqL2MIXVZV-68" style="rounded=0;orthogonalLoop=1;jettySize=auto;html=1;exitX=0.019;exitY=0.038;exitDx=0;exitDy=0;entryX=1;entryY=1;entryDx=0;entryDy=0;endArrow=oval;startFill=0;endFill=0;exitPerimeter=0;" parent="1" source="cClUuNWOQDHqL2MIXVZV-3" target="cClUuNWOQDHqL2MIXVZV-45" edge="1">
          <mxGeometry relative="1" as="geometry" />
        </mxCell>
        <mxCell id="cClUuNWOQDHqL2MIXVZV-45" value="Ciudad" style="ellipse;whiteSpace=wrap;html=1;" parent="1" vertex="1">
          <mxGeometry x="10" y="187.5" width="90" height="55" as="geometry" />
        </mxCell>
        <mxCell id="cClUuNWOQDHqL2MIXVZV-71" style="edgeStyle=orthogonalEdgeStyle;rounded=0;orthogonalLoop=1;jettySize=auto;html=1;exitX=0;exitY=0.5;exitDx=0;exitDy=0;entryX=1;entryY=0.5;entryDx=0;entryDy=0;endArrow=none;startFill=0;endFill=0;" parent="1" source="cClUuNWOQDHqL2MIXVZV-3" target="cClUuNWOQDHqL2MIXVZV-46" edge="1">
          <mxGeometry relative="1" as="geometry" />
        </mxCell>
        <mxCell id="cClUuNWOQDHqL2MIXVZV-46" value="Requiere_&lt;div&gt;Pasaporte&lt;/div&gt;" style="ellipse;whiteSpace=wrap;html=1;" parent="1" vertex="1">
          <mxGeometry x="10" y="262.5" width="90" height="55" as="geometry" />
        </mxCell>
        <mxCell id="cClUuNWOQDHqL2MIXVZV-69" style="edgeStyle=orthogonalEdgeStyle;rounded=0;orthogonalLoop=1;jettySize=auto;html=1;exitX=0.25;exitY=0;exitDx=0;exitDy=0;entryX=0.5;entryY=0;entryDx=0;entryDy=0;endArrow=oval;startFill=0;endFill=0;" parent="1" source="cClUuNWOQDHqL2MIXVZV-3" target="cClUuNWOQDHqL2MIXVZV-47" edge="1">
          <mxGeometry relative="1" as="geometry" />
        </mxCell>
        <mxCell id="cClUuNWOQDHqL2MIXVZV-47" value="País" style="ellipse;whiteSpace=wrap;html=1;direction=west;" parent="1" vertex="1">
          <mxGeometry x="110" y="167.5" width="90" height="55" as="geometry" />
        </mxCell>
        <mxCell id="cClUuNWOQDHqL2MIXVZV-66" style="edgeStyle=orthogonalEdgeStyle;rounded=0;orthogonalLoop=1;jettySize=auto;html=1;exitX=1;exitY=1;exitDx=0;exitDy=0;entryX=0.25;entryY=0;entryDx=0;entryDy=0;endArrow=none;startFill=0;" parent="1" source="cClUuNWOQDHqL2MIXVZV-48" target="cClUuNWOQDHqL2MIXVZV-23" edge="1">
          <mxGeometry relative="1" as="geometry" />
        </mxCell>
        <mxCell id="cClUuNWOQDHqL2MIXVZV-48" value="&lt;u&gt;numero_&lt;/u&gt;&lt;div&gt;&lt;u&gt;pasaporte&lt;/u&gt;&lt;/div&gt;" style="ellipse;whiteSpace=wrap;html=1;" parent="1" vertex="1">
          <mxGeometry x="630" y="30" width="90" height="55" as="geometry" />
        </mxCell>
        <mxCell id="cClUuNWOQDHqL2MIXVZV-67" style="edgeStyle=orthogonalEdgeStyle;rounded=0;orthogonalLoop=1;jettySize=auto;html=1;exitX=0.75;exitY=0;exitDx=0;exitDy=0;entryX=0;entryY=1;entryDx=0;entryDy=0;endArrow=oval;startFill=0;endFill=0;" parent="1" source="cClUuNWOQDHqL2MIXVZV-23" target="cClUuNWOQDHqL2MIXVZV-49" edge="1">
          <mxGeometry relative="1" as="geometry" />
        </mxCell>
        <mxCell id="cClUuNWOQDHqL2MIXVZV-49" value="pais_&lt;div&gt;expedición&lt;/div&gt;" style="ellipse;whiteSpace=wrap;html=1;" parent="1" vertex="1">
          <mxGeometry x="780" y="30" width="90" height="55" as="geometry" />
        </mxCell>
        <mxCell id="cClUuNWOQDHqL2MIXVZV-55" style="edgeStyle=orthogonalEdgeStyle;rounded=0;orthogonalLoop=1;jettySize=auto;html=1;exitX=0;exitY=0;exitDx=0;exitDy=0;entryX=1;entryY=0.5;entryDx=0;entryDy=0;endArrow=none;startFill=0;" parent="1" source="cClUuNWOQDHqL2MIXVZV-50" target="cClUuNWOQDHqL2MIXVZV-33" edge="1">
          <mxGeometry relative="1" as="geometry">
            <Array as="points">
              <mxPoint x="368" y="440" />
            </Array>
          </mxGeometry>
        </mxCell>
        <mxCell id="cClUuNWOQDHqL2MIXVZV-50" value="&lt;u&gt;ID&lt;/u&gt;" style="ellipse;whiteSpace=wrap;html=1;" parent="1" vertex="1">
          <mxGeometry x="355" y="470" width="90" height="55" as="geometry" />
        </mxCell>
        <mxCell id="cClUuNWOQDHqL2MIXVZV-59" style="edgeStyle=orthogonalEdgeStyle;rounded=0;orthogonalLoop=1;jettySize=auto;html=1;exitX=1;exitY=0;exitDx=0;exitDy=0;entryX=0;entryY=0.5;entryDx=0;entryDy=0;endArrow=none;startFill=0;" parent="1" source="cClUuNWOQDHqL2MIXVZV-53" target="cClUuNWOQDHqL2MIXVZV-33" edge="1">
          <mxGeometry relative="1" as="geometry">
            <Array as="points">
              <mxPoint x="117" y="440" />
            </Array>
          </mxGeometry>
        </mxCell>
        <mxCell id="cClUuNWOQDHqL2MIXVZV-53" value="Especialidad" style="ellipse;whiteSpace=wrap;html=1;" parent="1" vertex="1">
          <mxGeometry x="40" y="470" width="90" height="55" as="geometry" />
        </mxCell>
        <mxCell id="cClUuNWOQDHqL2MIXVZV-72" value="VNN" style="text;html=1;align=center;verticalAlign=middle;whiteSpace=wrap;rounded=0;" parent="1" vertex="1">
          <mxGeometry x="80" y="240" width="60" height="30" as="geometry" />
        </mxCell>
        <mxCell id="cClUuNWOQDHqL2MIXVZV-73" value="VNN" style="text;html=1;align=center;verticalAlign=middle;whiteSpace=wrap;rounded=0;" parent="1" vertex="1">
          <mxGeometry x="150" y="470" width="60" height="30" as="geometry" />
        </mxCell>
        <mxCell id="cClUuNWOQDHqL2MIXVZV-74" value="VNN" style="text;html=1;align=center;verticalAlign=middle;whiteSpace=wrap;rounded=0;" parent="1" vertex="1">
          <mxGeometry x="230" y="495" width="60" height="30" as="geometry" />
        </mxCell>
        <mxCell id="cClUuNWOQDHqL2MIXVZV-75" value="VNN" style="text;html=1;align=center;verticalAlign=middle;whiteSpace=wrap;rounded=0;" parent="1" vertex="1">
          <mxGeometry x="800" y="380" width="60" height="20" as="geometry" />
        </mxCell>
        <mxCell id="cClUuNWOQDHqL2MIXVZV-76" value="VNN" style="text;html=1;align=center;verticalAlign=middle;whiteSpace=wrap;rounded=0;" parent="1" vertex="1">
          <mxGeometry x="860" y="355" width="55" height="25" as="geometry" />
        </mxCell>
        <mxCell id="cClUuNWOQDHqL2MIXVZV-77" value="VNN" style="text;html=1;align=center;verticalAlign=middle;whiteSpace=wrap;rounded=0;" parent="1" vertex="1">
          <mxGeometry x="780" y="80" width="60" height="30" as="geometry" />
        </mxCell>
        <mxCell id="cClUuNWOQDHqL2MIXVZV-78" value="VNN" style="text;html=1;align=center;verticalAlign=middle;whiteSpace=wrap;rounded=0;" parent="1" vertex="1">
          <mxGeometry x="165" y="210" width="60" height="30" as="geometry" />
        </mxCell>
        <mxCell id="CcwklDiPerfuysnxBg1o-7" style="edgeStyle=orthogonalEdgeStyle;rounded=0;orthogonalLoop=1;jettySize=auto;html=1;exitX=0.25;exitY=0;exitDx=0;exitDy=0;entryX=0.5;entryY=0;entryDx=0;entryDy=0;endArrow=none;startFill=0;" edge="1" parent="1" source="CcwklDiPerfuysnxBg1o-1" target="CcwklDiPerfuysnxBg1o-3">
          <mxGeometry relative="1" as="geometry" />
        </mxCell>
        <mxCell id="CcwklDiPerfuysnxBg1o-9" style="edgeStyle=orthogonalEdgeStyle;rounded=0;orthogonalLoop=1;jettySize=auto;html=1;exitX=0.5;exitY=0;exitDx=0;exitDy=0;entryX=0.5;entryY=1;entryDx=0;entryDy=0;endArrow=none;startFill=0;" edge="1" parent="1" source="CcwklDiPerfuysnxBg1o-1">
          <mxGeometry relative="1" as="geometry">
            <mxPoint x="475" y="200" as="targetPoint" />
          </mxGeometry>
        </mxCell>
        <mxCell id="CcwklDiPerfuysnxBg1o-14" style="edgeStyle=orthogonalEdgeStyle;rounded=0;orthogonalLoop=1;jettySize=auto;html=1;exitX=0.75;exitY=0;exitDx=0;exitDy=0;entryX=1;entryY=0;entryDx=0;entryDy=0;endArrow=none;startFill=0;" edge="1" parent="1" source="CcwklDiPerfuysnxBg1o-1" target="CcwklDiPerfuysnxBg1o-11">
          <mxGeometry relative="1" as="geometry" />
        </mxCell>
        <mxCell id="CcwklDiPerfuysnxBg1o-1" value="BOOKING" style="rounded=1;whiteSpace=wrap;html=1;" vertex="1" parent="1">
          <mxGeometry x="425" y="270" width="100" height="40" as="geometry" />
        </mxCell>
        <mxCell id="CcwklDiPerfuysnxBg1o-3" value="id_destino" style="ellipse;whiteSpace=wrap;html=1;direction=west;" vertex="1" parent="1">
          <mxGeometry x="335" y="155" width="90" height="55" as="geometry" />
        </mxCell>
        <mxCell id="CcwklDiPerfuysnxBg1o-4" value="&lt;u&gt;id&lt;/u&gt;" style="ellipse;whiteSpace=wrap;html=1;direction=west;" vertex="1" parent="1">
          <mxGeometry x="225" y="155" width="90" height="55" as="geometry" />
        </mxCell>
        <mxCell id="CcwklDiPerfuysnxBg1o-10" value="email_usuario" style="ellipse;whiteSpace=wrap;html=1;direction=west;" vertex="1" parent="1">
          <mxGeometry x="430" y="145" width="90" height="55" as="geometry" />
        </mxCell>
        <mxCell id="CcwklDiPerfuysnxBg1o-11" value="&lt;u&gt;id&lt;/u&gt;" style="ellipse;whiteSpace=wrap;html=1;direction=west;" vertex="1" parent="1">
          <mxGeometry x="520" y="165" width="90" height="55" as="geometry" />
        </mxCell>
        <mxCell id="CcwklDiPerfuysnxBg1o-17" style="edgeStyle=orthogonalEdgeStyle;rounded=0;orthogonalLoop=1;jettySize=auto;html=1;exitX=0.5;exitY=1;exitDx=0;exitDy=0;entryX=0.5;entryY=1;entryDx=0;entryDy=0;endArrow=none;startFill=0;" edge="1" parent="1" source="CcwklDiPerfuysnxBg1o-12" target="CcwklDiPerfuysnxBg1o-1">
          <mxGeometry relative="1" as="geometry" />
        </mxCell>
        <mxCell id="CcwklDiPerfuysnxBg1o-12" value="inicio_booking" style="ellipse;whiteSpace=wrap;html=1;direction=west;" vertex="1" parent="1">
          <mxGeometry x="430" y="360" width="90" height="55" as="geometry" />
        </mxCell>
        <mxCell id="CcwklDiPerfuysnxBg1o-18" style="edgeStyle=orthogonalEdgeStyle;rounded=0;orthogonalLoop=1;jettySize=auto;html=1;exitX=1;exitY=1;exitDx=0;exitDy=0;entryX=0.75;entryY=1;entryDx=0;entryDy=0;endArrow=none;startFill=0;" edge="1" parent="1" source="CcwklDiPerfuysnxBg1o-13" target="CcwklDiPerfuysnxBg1o-1">
          <mxGeometry relative="1" as="geometry" />
        </mxCell>
        <mxCell id="CcwklDiPerfuysnxBg1o-13" value="final_booking" style="ellipse;whiteSpace=wrap;html=1;direction=west;" vertex="1" parent="1">
          <mxGeometry x="525" y="350" width="90" height="55" as="geometry" />
        </mxCell>
        <mxCell id="CcwklDiPerfuysnxBg1o-16" style="edgeStyle=orthogonalEdgeStyle;rounded=0;orthogonalLoop=1;jettySize=auto;html=1;exitX=0;exitY=1;exitDx=0;exitDy=0;entryX=0.25;entryY=1;entryDx=0;entryDy=0;endArrow=none;startFill=0;" edge="1" parent="1" source="CcwklDiPerfuysnxBg1o-15" target="CcwklDiPerfuysnxBg1o-1">
          <mxGeometry relative="1" as="geometry">
            <Array as="points">
              <mxPoint x="412" y="330" />
              <mxPoint x="450" y="330" />
            </Array>
          </mxGeometry>
        </mxCell>
        <mxCell id="CcwklDiPerfuysnxBg1o-15" value="creado_en" style="ellipse;whiteSpace=wrap;html=1;direction=west;" vertex="1" parent="1">
          <mxGeometry x="335" y="345" width="90" height="55" as="geometry" />
        </mxCell>
        <mxCell id="CcwklDiPerfuysnxBg1o-19" value="" style="triangle;whiteSpace=wrap;html=1;fillColor=light-dark(#FFFFFF,#000000);" vertex="1" parent="1">
          <mxGeometry x="350" y="275" width="30" height="30" as="geometry" />
        </mxCell>
        <mxCell id="CcwklDiPerfuysnxBg1o-20" value="" style="triangle;whiteSpace=wrap;html=1;rotation=-180;fillColor=light-dark(#FFFFFF,#FFFFFF);" vertex="1" parent="1">
          <mxGeometry x="320" y="275" width="30" height="30" as="geometry" />
        </mxCell>
        <mxCell id="CcwklDiPerfuysnxBg1o-21" value="Reservar_plaza" style="text;html=1;align=center;verticalAlign=middle;whiteSpace=wrap;rounded=0;" vertex="1" parent="1">
          <mxGeometry x="330" y="305" width="60" height="30" as="geometry" />
        </mxCell>
        <mxCell id="CcwklDiPerfuysnxBg1o-22" value="admin" style="ellipse;whiteSpace=wrap;html=1;" vertex="1" parent="1">
          <mxGeometry x="720" y="415" width="90" height="55" as="geometry" />
        </mxCell>
        <mxCell id="CcwklDiPerfuysnxBg1o-23" value="password" style="ellipse;whiteSpace=wrap;html=1;" vertex="1" parent="1">
          <mxGeometry x="620" y="410" width="90" height="55" as="geometry" />
        </mxCell>
        <mxCell id="CcwklDiPerfuysnxBg1o-26" value="VNN" style="text;html=1;align=center;verticalAlign=middle;whiteSpace=wrap;rounded=0;" vertex="1" parent="1">
          <mxGeometry x="655" y="385" width="55" height="25" as="geometry" />
        </mxCell>
      </root>
    </mxGraphModel>
  </diagram>
</mxfile>
